<svg width="30" height="30" viewBox="0 0 30 30" fill="none" xmlns="http://www.w3.org/2000/svg">
<path d="M12 0C13.5913 0 15.1174 0.632141 16.2426 1.75736C17.3679 2.88258 18 4.4087 18 6V9H20.625C21.5201 9 22.3785 9.35558 23.0115 9.98851C23.6444 10.6214 24 11.4799 24 12.375V13.5C23.5215 13.5 23.0445 13.665 22.656 13.9935L22.4955 14.1435C22.2495 14.3985 22.0005 14.628 21.7515 14.829L21.75 12.375C21.75 12.0766 21.6315 11.7905 21.4205 11.5795C21.2095 11.3685 20.9234 11.25 20.625 11.25H3.375C3.07663 11.25 2.79048 11.3685 2.5795 11.5795C2.36853 11.7905 2.25 12.0766 2.25 12.375V26.625C2.25 27.246 2.754 27.75 3.375 27.75H18.207C18.8359 28.6324 19.6183 29.3946 20.517 30H3.375C2.47989 30 1.62145 29.6444 0.988515 29.0115C0.355579 28.3785 0 27.5201 0 26.625V12.375C0 11.4799 0.355579 10.6214 0.988515 9.98851C1.62145 9.35558 2.47989 9 3.375 9H6V6C6 4.4087 6.63214 2.88258 7.75736 1.75736C8.88258 0.632141 10.4087 0 12 0ZM24.426 15.183C25.914 16.737 27.5625 17.5005 29.4 17.5005C29.6895 17.5005 29.9325 17.715 29.988 17.9985L30 18.1245V21.876C30 25.899 28.0305 28.635 24.1905 29.9685C24.0676 30.0112 23.9339 30.0112 23.811 29.9685C20.097 28.6785 18.1335 26.0805 18.006 22.2735L18 21.8775V18.1275C18 17.7825 18.27 17.502 18.6 17.502C20.4345 17.502 22.0845 16.737 23.577 15.1845C23.6315 15.1267 23.6973 15.0806 23.7703 15.0491C23.8433 15.0176 23.922 15.0013 24.0015 15.0013C24.081 15.0013 24.1597 15.0176 24.2327 15.0491C24.3057 15.0806 24.3715 15.1267 24.426 15.1845V15.183ZM12 17.25C12.5967 17.25 13.169 17.4871 13.591 17.909C14.0129 18.331 14.25 18.9033 14.25 19.5C14.25 20.0967 14.0129 20.669 13.591 21.091C13.169 21.5129 12.5967 21.75 12 21.75C11.4033 21.75 10.831 21.5129 10.409 21.091C9.98705 20.669 9.75 20.0967 9.75 19.5C9.75 18.9033 9.98705 18.331 10.409 17.909C10.831 17.4871 11.4033 17.25 12 17.25ZM12 2.25C11.0054 2.25 10.0516 2.64509 9.34835 3.34835C8.64509 4.05161 8.25 5.00544 8.25 6V9H15.75V6C15.75 5.00544 15.3549 4.05161 14.6517 3.34835C13.9484 2.64509 12.9946 2.25 12 2.25Z" fill="black"/>
</svg>
